<?xml version="1.0" standalone="no"?>
<!DOCTYPE svg PUBLIC "-//W3C//DTD SVG 20010904//EN"
 "http://www.w3.org/TR/2001/REC-SVG-20010904/DTD/svg10.dtd">
<svg version="1.0" xmlns="http://www.w3.org/2000/svg"
 width="700.000000pt" height="700.000000pt" viewBox="0 0 700.000000 700.000000"
 preserveAspectRatio="xMidYMid meet">
<metadata>
Created by potrace 1.11, written by Peter Selinger 2001-2013
</metadata>
<g transform="translate(0.000000,700.000000) scale(0.100000,-0.100000)"
fill="#000000" stroke="none">
<path d="M3298 6995 c-2 -1 -48 -6 -102 -9 -55 -4 -102 -8 -105 -10 -3 -2 -35
-7 -70 -10 -35 -4 -85 -11 -110 -16 -25 -5 -57 -12 -71 -14 -185 -34 -440
-107 -606 -174 -27 -11 -74 -30 -104 -42 -258 -104 -621 -327 -875 -538 -126
-104 -374 -356 -479 -487 -337 -421 -573 -910 -692 -1440 -19 -84 -42 -211
-49 -275 -3 -25 -7 -54 -10 -66 -18 -84 -26 -524 -12 -700 26 -338 110 -693
239 -1014 52 -129 168 -368 213 -439 14 -23 25 -43 25 -46 0 -3 40 -65 89
-137 153 -228 286 -390 463 -563 141 -139 156 -152 298 -264 91 -73 362 -261
376 -261 2 0 22 -11 43 -24 122 -78 415 -210 620 -280 192 -66 491 -137 643
-152 35 -3 65 -7 68 -9 15 -9 230 -20 410 -20 277 0 350 6 610 51 456 78 938
270 1315 524 129 87 144 97 237 171 128 101 163 133 318 289 228 228 384 429
542 700 226 385 402 894 443 1280 4 30 8 61 11 69 24 73 23 781 -1 821 -1 3
-6 32 -9 65 -6 63 -9 76 -32 195 -23 114 -24 119 -39 179 -112 450 -332 905
-614 1271 -36 47 -68 87 -71 90 -3 3 -37 43 -77 90 -123 146 -333 343 -513
482 -102 78 -295 208 -310 208 -5 0 -10 5 -10 10 0 6 -5 10 -10 10 -6 0 -29
12 -52 26 -66 42 -290 151 -416 203 -217 89 -499 172 -699 205 -48 8 -235 35
-293 41 -56 7 -526 16 -532 10z m437 -969 c33 -4 76 -9 95 -12 19 -3 50 -7 68
-9 165 -24 414 -95 592 -170 127 -53 366 -184 435 -237 6 -5 56 -43 113 -85
122 -90 331 -292 432 -417 112 -139 231 -328 309 -487 39 -81 71 -153 71 -161
0 -8 4 -18 9 -23 16 -18 100 -285 115 -365 2 -14 7 -36 10 -50 7 -29 14 -69
21 -120 3 -19 7 -44 10 -55 23 -112 24 -539 1 -661 -2 -10 -7 -41 -10 -69 -7
-54 -39 -197 -63 -285 -87 -318 -250 -634 -470 -913 -83 -106 -314 -331 -423
-413 -132 -99 -282 -195 -390 -250 -75 -38 -203 -94 -215 -94 -8 0 -16 -4 -19
-8 -9 -15 -288 -102 -369 -116 -15 -3 -35 -7 -45 -10 -9 -3 -35 -7 -57 -11
-22 -3 -47 -7 -55 -10 -18 -4 -105 -14 -214 -24 -129 -11 -435 -3 -521 14 -11
3 -37 7 -58 10 -123 17 -330 69 -455 114 -352 128 -664 324 -922 581 -178 177
-241 254 -366 445 -138 212 -294 575 -330 770 -2 11 -8 40 -14 65 -12 56 -19
94 -26 145 -2 22 -7 49 -9 61 -18 86 -25 401 -12 549 7 75 10 97 22 170 3 17
8 46 11 65 7 45 39 178 62 260 86 305 290 679 506 930 64 74 255 258 330 320
257 208 584 378 907 470 88 26 129 35 234 55 60 12 162 25 240 31 44 3 81 7
82 8 6 5 314 -2 368 -8z"/>
<path d="M2295 3503 l0 -1598 338 -3 337 -2 1 22 c0 13 1 213 1 445 l0 422
288 3 c158 2 294 2 302 0 9 -2 29 -22 45 -45 15 -23 81 -114 146 -202 65 -88
145 -198 179 -245 34 -47 113 -156 177 -242 l115 -158 418 0 c341 0 418 2 411
13 -8 14 -88 122 -333 457 -83 113 -198 270 -255 350 -58 80 -126 173 -151
206 l-44 62 52 38 c231 167 379 412 432 714 14 86 16 361 2 425 -3 17 -13 59
-21 95 -42 192 -128 346 -274 491 -111 110 -221 181 -386 248 -58 23 -221 67
-282 76 -23 3 -57 9 -75 12 -18 4 -346 8 -728 10 l-695 4 0 -1598z m1305 913
c94 -9 128 -15 195 -38 106 -35 176 -83 226 -155 54 -78 71 -147 71 -280 -2
-199 -77 -326 -237 -403 -120 -57 -158 -62 -536 -67 l-347 -5 1 474 c0 456 1
473 19 478 26 7 527 3 608 -4z"/>
</g>
</svg>
