<?xml version="1.0" encoding="UTF-8"?>
<svg version="1.1" baseProfile="tiny" xmlns="http://www.w3.org/2000/svg" width="300" height="300">
<rect shape-rendering="optimizeSpeed"  x="0" y="0" width="300" height="300" fill="white" />
<rect shape-rendering="optimizeSpeed"  x="12" y="12" width="11" height="11" fill="black" />
<rect shape-rendering="optimizeSpeed"  x="23" y="12" width="11" height="11" fill="black" />
<rect shape-rendering="optimizeSpeed"  x="34" y="12" width="11" height="11" fill="black" />
<rect shape-rendering="optimizeSpeed"  x="45" y="12" width="11" height="11" fill="black" />
<rect shape-rendering="optimizeSpeed"  x="56" y="12" width="11" height="11" fill="black" />
<rect shape-rendering="optimizeSpeed"  x="67" y="12" width="11" height="11" fill="black" />
<rect shape-rendering="optimizeSpeed"  x="78" y="12" width="11" height="11" fill="black" />
<rect shape-rendering="optimizeSpeed"  x="100" y="12" width="11" height="11" fill="black" />
<rect shape-rendering="optimizeSpeed"  x="111" y="12" width="11" height="11" fill="black" />
<rect shape-rendering="optimizeSpeed"  x="188" y="12" width="11" height="11" fill="black" />
<rect shape-rendering="optimizeSpeed"  x="210" y="12" width="11" height="11" fill="black" />
<rect shape-rendering="optimizeSpeed"  x="221" y="12" width="11" height="11" fill="black" />
<rect shape-rendering="optimizeSpeed"  x="232" y="12" width="11" height="11" fill="black" />
<rect shape-rendering="optimizeSpeed"  x="243" y="12" width="11" height="11" fill="black" />
<rect shape-rendering="optimizeSpeed"  x="254" y="12" width="11" height="11" fill="black" />
<rect shape-rendering="optimizeSpeed"  x="265" y="12" width="11" height="11" fill="black" />
<rect shape-rendering="optimizeSpeed"  x="276" y="12" width="11" height="11" fill="black" />
<rect shape-rendering="optimizeSpeed"  x="12" y="23" width="11" height="11" fill="black" />
<rect shape-rendering="optimizeSpeed"  x="78" y="23" width="11" height="11" fill="black" />
<rect shape-rendering="optimizeSpeed"  x="155" y="23" width="11" height="11" fill="black" />
<rect shape-rendering="optimizeSpeed"  x="210" y="23" width="11" height="11" fill="black" />
<rect shape-rendering="optimizeSpeed"  x="276" y="23" width="11" height="11" fill="black" />
<rect shape-rendering="optimizeSpeed"  x="12" y="34" width="11" height="11" fill="black" />
<rect shape-rendering="optimizeSpeed"  x="34" y="34" width="11" height="11" fill="black" />
<rect shape-rendering="optimizeSpeed"  x="45" y="34" width="11" height="11" fill="black" />
<rect shape-rendering="optimizeSpeed"  x="56" y="34" width="11" height="11" fill="black" />
<rect shape-rendering="optimizeSpeed"  x="78" y="34" width="11" height="11" fill="black" />
<rect shape-rendering="optimizeSpeed"  x="100" y="34" width="11" height="11" fill="black" />
<rect shape-rendering="optimizeSpeed"  x="133" y="34" width="11" height="11" fill="black" />
<rect shape-rendering="optimizeSpeed"  x="144" y="34" width="11" height="11" fill="black" />
<rect shape-rendering="optimizeSpeed"  x="155" y="34" width="11" height="11" fill="black" />
<rect shape-rendering="optimizeSpeed"  x="166" y="34" width="11" height="11" fill="black" />
<rect shape-rendering="optimizeSpeed"  x="177" y="34" width="11" height="11" fill="black" />
<rect shape-rendering="optimizeSpeed"  x="210" y="34" width="11" height="11" fill="black" />
<rect shape-rendering="optimizeSpeed"  x="232" y="34" width="11" height="11" fill="black" />
<rect shape-rendering="optimizeSpeed"  x="243" y="34" width="11" height="11" fill="black" />
<rect shape-rendering="optimizeSpeed"  x="254" y="34" width="11" height="11" fill="black" />
<rect shape-rendering="optimizeSpeed"  x="276" y="34" width="11" height="11" fill="black" />
<rect shape-rendering="optimizeSpeed"  x="12" y="45" width="11" height="11" fill="black" />
<rect shape-rendering="optimizeSpeed"  x="34" y="45" width="11" height="11" fill="black" />
<rect shape-rendering="optimizeSpeed"  x="45" y="45" width="11" height="11" fill="black" />
<rect shape-rendering="optimizeSpeed"  x="56" y="45" width="11" height="11" fill="black" />
<rect shape-rendering="optimizeSpeed"  x="78" y="45" width="11" height="11" fill="black" />
<rect shape-rendering="optimizeSpeed"  x="100" y="45" width="11" height="11" fill="black" />
<rect shape-rendering="optimizeSpeed"  x="111" y="45" width="11" height="11" fill="black" />
<rect shape-rendering="optimizeSpeed"  x="133" y="45" width="11" height="11" fill="black" />
<rect shape-rendering="optimizeSpeed"  x="155" y="45" width="11" height="11" fill="black" />
<rect shape-rendering="optimizeSpeed"  x="166" y="45" width="11" height="11" fill="black" />
<rect shape-rendering="optimizeSpeed"  x="210" y="45" width="11" height="11" fill="black" />
<rect shape-rendering="optimizeSpeed"  x="232" y="45" width="11" height="11" fill="black" />
<rect shape-rendering="optimizeSpeed"  x="243" y="45" width="11" height="11" fill="black" />
<rect shape-rendering="optimizeSpeed"  x="254" y="45" width="11" height="11" fill="black" />
<rect shape-rendering="optimizeSpeed"  x="276" y="45" width="11" height="11" fill="black" />
<rect shape-rendering="optimizeSpeed"  x="12" y="56" width="11" height="11" fill="black" />
<rect shape-rendering="optimizeSpeed"  x="34" y="56" width="11" height="11" fill="black" />
<rect shape-rendering="optimizeSpeed"  x="45" y="56" width="11" height="11" fill="black" />
<rect shape-rendering="optimizeSpeed"  x="56" y="56" width="11" height="11" fill="black" />
<rect shape-rendering="optimizeSpeed"  x="78" y="56" width="11" height="11" fill="black" />
<rect shape-rendering="optimizeSpeed"  x="100" y="56" width="11" height="11" fill="black" />
<rect shape-rendering="optimizeSpeed"  x="111" y="56" width="11" height="11" fill="black" />
<rect shape-rendering="optimizeSpeed"  x="122" y="56" width="11" height="11" fill="black" />
<rect shape-rendering="optimizeSpeed"  x="133" y="56" width="11" height="11" fill="black" />
<rect shape-rendering="optimizeSpeed"  x="155" y="56" width="11" height="11" fill="black" />
<rect shape-rendering="optimizeSpeed"  x="166" y="56" width="11" height="11" fill="black" />
<rect shape-rendering="optimizeSpeed"  x="177" y="56" width="11" height="11" fill="black" />
<rect shape-rendering="optimizeSpeed"  x="210" y="56" width="11" height="11" fill="black" />
<rect shape-rendering="optimizeSpeed"  x="232" y="56" width="11" height="11" fill="black" />
<rect shape-rendering="optimizeSpeed"  x="243" y="56" width="11" height="11" fill="black" />
<rect shape-rendering="optimizeSpeed"  x="254" y="56" width="11" height="11" fill="black" />
<rect shape-rendering="optimizeSpeed"  x="276" y="56" width="11" height="11" fill="black" />
<rect shape-rendering="optimizeSpeed"  x="12" y="67" width="11" height="11" fill="black" />
<rect shape-rendering="optimizeSpeed"  x="78" y="67" width="11" height="11" fill="black" />
<rect shape-rendering="optimizeSpeed"  x="111" y="67" width="11" height="11" fill="black" />
<rect shape-rendering="optimizeSpeed"  x="144" y="67" width="11" height="11" fill="black" />
<rect shape-rendering="optimizeSpeed"  x="155" y="67" width="11" height="11" fill="black" />
<rect shape-rendering="optimizeSpeed"  x="188" y="67" width="11" height="11" fill="black" />
<rect shape-rendering="optimizeSpeed"  x="210" y="67" width="11" height="11" fill="black" />
<rect shape-rendering="optimizeSpeed"  x="276" y="67" width="11" height="11" fill="black" />
<rect shape-rendering="optimizeSpeed"  x="12" y="78" width="11" height="11" fill="black" />
<rect shape-rendering="optimizeSpeed"  x="23" y="78" width="11" height="11" fill="black" />
<rect shape-rendering="optimizeSpeed"  x="34" y="78" width="11" height="11" fill="black" />
<rect shape-rendering="optimizeSpeed"  x="45" y="78" width="11" height="11" fill="black" />
<rect shape-rendering="optimizeSpeed"  x="56" y="78" width="11" height="11" fill="black" />
<rect shape-rendering="optimizeSpeed"  x="67" y="78" width="11" height="11" fill="black" />
<rect shape-rendering="optimizeSpeed"  x="78" y="78" width="11" height="11" fill="black" />
<rect shape-rendering="optimizeSpeed"  x="100" y="78" width="11" height="11" fill="black" />
<rect shape-rendering="optimizeSpeed"  x="122" y="78" width="11" height="11" fill="black" />
<rect shape-rendering="optimizeSpeed"  x="144" y="78" width="11" height="11" fill="black" />
<rect shape-rendering="optimizeSpeed"  x="166" y="78" width="11" height="11" fill="black" />
<rect shape-rendering="optimizeSpeed"  x="188" y="78" width="11" height="11" fill="black" />
<rect shape-rendering="optimizeSpeed"  x="210" y="78" width="11" height="11" fill="black" />
<rect shape-rendering="optimizeSpeed"  x="221" y="78" width="11" height="11" fill="black" />
<rect shape-rendering="optimizeSpeed"  x="232" y="78" width="11" height="11" fill="black" />
<rect shape-rendering="optimizeSpeed"  x="243" y="78" width="11" height="11" fill="black" />
<rect shape-rendering="optimizeSpeed"  x="254" y="78" width="11" height="11" fill="black" />
<rect shape-rendering="optimizeSpeed"  x="265" y="78" width="11" height="11" fill="black" />
<rect shape-rendering="optimizeSpeed"  x="276" y="78" width="11" height="11" fill="black" />
<rect shape-rendering="optimizeSpeed"  x="111" y="89" width="11" height="11" fill="black" />
<rect shape-rendering="optimizeSpeed"  x="133" y="89" width="11" height="11" fill="black" />
<rect shape-rendering="optimizeSpeed"  x="177" y="89" width="11" height="11" fill="black" />
<rect shape-rendering="optimizeSpeed"  x="12" y="100" width="11" height="11" fill="black" />
<rect shape-rendering="optimizeSpeed"  x="23" y="100" width="11" height="11" fill="black" />
<rect shape-rendering="optimizeSpeed"  x="34" y="100" width="11" height="11" fill="black" />
<rect shape-rendering="optimizeSpeed"  x="45" y="100" width="11" height="11" fill="black" />
<rect shape-rendering="optimizeSpeed"  x="78" y="100" width="11" height="11" fill="black" />
<rect shape-rendering="optimizeSpeed"  x="100" y="100" width="11" height="11" fill="black" />
<rect shape-rendering="optimizeSpeed"  x="166" y="100" width="11" height="11" fill="black" />
<rect shape-rendering="optimizeSpeed"  x="188" y="100" width="11" height="11" fill="black" />
<rect shape-rendering="optimizeSpeed"  x="199" y="100" width="11" height="11" fill="black" />
<rect shape-rendering="optimizeSpeed"  x="232" y="100" width="11" height="11" fill="black" />
<rect shape-rendering="optimizeSpeed"  x="243" y="100" width="11" height="11" fill="black" />
<rect shape-rendering="optimizeSpeed"  x="254" y="100" width="11" height="11" fill="black" />
<rect shape-rendering="optimizeSpeed"  x="276" y="100" width="11" height="11" fill="black" />
<rect shape-rendering="optimizeSpeed"  x="45" y="111" width="11" height="11" fill="black" />
<rect shape-rendering="optimizeSpeed"  x="56" y="111" width="11" height="11" fill="black" />
<rect shape-rendering="optimizeSpeed"  x="67" y="111" width="11" height="11" fill="black" />
<rect shape-rendering="optimizeSpeed"  x="100" y="111" width="11" height="11" fill="black" />
<rect shape-rendering="optimizeSpeed"  x="111" y="111" width="11" height="11" fill="black" />
<rect shape-rendering="optimizeSpeed"  x="166" y="111" width="11" height="11" fill="black" />
<rect shape-rendering="optimizeSpeed"  x="188" y="111" width="11" height="11" fill="black" />
<rect shape-rendering="optimizeSpeed"  x="221" y="111" width="11" height="11" fill="black" />
<rect shape-rendering="optimizeSpeed"  x="265" y="111" width="11" height="11" fill="black" />
<rect shape-rendering="optimizeSpeed"  x="12" y="122" width="11" height="11" fill="black" />
<rect shape-rendering="optimizeSpeed"  x="23" y="122" width="11" height="11" fill="black" />
<rect shape-rendering="optimizeSpeed"  x="34" y="122" width="11" height="11" fill="black" />
<rect shape-rendering="optimizeSpeed"  x="45" y="122" width="11" height="11" fill="black" />
<rect shape-rendering="optimizeSpeed"  x="78" y="122" width="11" height="11" fill="black" />
<rect shape-rendering="optimizeSpeed"  x="100" y="122" width="11" height="11" fill="black" />
<rect shape-rendering="optimizeSpeed"  x="199" y="122" width="11" height="11" fill="black" />
<rect shape-rendering="optimizeSpeed"  x="210" y="122" width="11" height="11" fill="black" />
<rect shape-rendering="optimizeSpeed"  x="12" y="133" width="11" height="11" fill="black" />
<rect shape-rendering="optimizeSpeed"  x="34" y="133" width="11" height="11" fill="black" />
<rect shape-rendering="optimizeSpeed"  x="56" y="133" width="11" height="11" fill="black" />
<rect shape-rendering="optimizeSpeed"  x="67" y="133" width="11" height="11" fill="black" />
<rect shape-rendering="optimizeSpeed"  x="133" y="133" width="11" height="11" fill="black" />
<rect shape-rendering="optimizeSpeed"  x="144" y="133" width="11" height="11" fill="black" />
<rect shape-rendering="optimizeSpeed"  x="155" y="133" width="11" height="11" fill="black" />
<rect shape-rendering="optimizeSpeed"  x="177" y="133" width="11" height="11" fill="black" />
<rect shape-rendering="optimizeSpeed"  x="199" y="133" width="11" height="11" fill="black" />
<rect shape-rendering="optimizeSpeed"  x="221" y="133" width="11" height="11" fill="black" />
<rect shape-rendering="optimizeSpeed"  x="243" y="133" width="11" height="11" fill="black" />
<rect shape-rendering="optimizeSpeed"  x="254" y="133" width="11" height="11" fill="black" />
<rect shape-rendering="optimizeSpeed"  x="12" y="144" width="11" height="11" fill="black" />
<rect shape-rendering="optimizeSpeed"  x="56" y="144" width="11" height="11" fill="black" />
<rect shape-rendering="optimizeSpeed"  x="78" y="144" width="11" height="11" fill="black" />
<rect shape-rendering="optimizeSpeed"  x="111" y="144" width="11" height="11" fill="black" />
<rect shape-rendering="optimizeSpeed"  x="133" y="144" width="11" height="11" fill="black" />
<rect shape-rendering="optimizeSpeed"  x="144" y="144" width="11" height="11" fill="black" />
<rect shape-rendering="optimizeSpeed"  x="155" y="144" width="11" height="11" fill="black" />
<rect shape-rendering="optimizeSpeed"  x="166" y="144" width="11" height="11" fill="black" />
<rect shape-rendering="optimizeSpeed"  x="199" y="144" width="11" height="11" fill="black" />
<rect shape-rendering="optimizeSpeed"  x="210" y="144" width="11" height="11" fill="black" />
<rect shape-rendering="optimizeSpeed"  x="221" y="144" width="11" height="11" fill="black" />
<rect shape-rendering="optimizeSpeed"  x="232" y="144" width="11" height="11" fill="black" />
<rect shape-rendering="optimizeSpeed"  x="254" y="144" width="11" height="11" fill="black" />
<rect shape-rendering="optimizeSpeed"  x="265" y="144" width="11" height="11" fill="black" />
<rect shape-rendering="optimizeSpeed"  x="276" y="144" width="11" height="11" fill="black" />
<rect shape-rendering="optimizeSpeed"  x="34" y="155" width="11" height="11" fill="black" />
<rect shape-rendering="optimizeSpeed"  x="67" y="155" width="11" height="11" fill="black" />
<rect shape-rendering="optimizeSpeed"  x="122" y="155" width="11" height="11" fill="black" />
<rect shape-rendering="optimizeSpeed"  x="133" y="155" width="11" height="11" fill="black" />
<rect shape-rendering="optimizeSpeed"  x="155" y="155" width="11" height="11" fill="black" />
<rect shape-rendering="optimizeSpeed"  x="166" y="155" width="11" height="11" fill="black" />
<rect shape-rendering="optimizeSpeed"  x="177" y="155" width="11" height="11" fill="black" />
<rect shape-rendering="optimizeSpeed"  x="188" y="155" width="11" height="11" fill="black" />
<rect shape-rendering="optimizeSpeed"  x="199" y="155" width="11" height="11" fill="black" />
<rect shape-rendering="optimizeSpeed"  x="210" y="155" width="11" height="11" fill="black" />
<rect shape-rendering="optimizeSpeed"  x="221" y="155" width="11" height="11" fill="black" />
<rect shape-rendering="optimizeSpeed"  x="232" y="155" width="11" height="11" fill="black" />
<rect shape-rendering="optimizeSpeed"  x="276" y="155" width="11" height="11" fill="black" />
<rect shape-rendering="optimizeSpeed"  x="23" y="166" width="11" height="11" fill="black" />
<rect shape-rendering="optimizeSpeed"  x="45" y="166" width="11" height="11" fill="black" />
<rect shape-rendering="optimizeSpeed"  x="56" y="166" width="11" height="11" fill="black" />
<rect shape-rendering="optimizeSpeed"  x="67" y="166" width="11" height="11" fill="black" />
<rect shape-rendering="optimizeSpeed"  x="78" y="166" width="11" height="11" fill="black" />
<rect shape-rendering="optimizeSpeed"  x="89" y="166" width="11" height="11" fill="black" />
<rect shape-rendering="optimizeSpeed"  x="111" y="166" width="11" height="11" fill="black" />
<rect shape-rendering="optimizeSpeed"  x="144" y="166" width="11" height="11" fill="black" />
<rect shape-rendering="optimizeSpeed"  x="155" y="166" width="11" height="11" fill="black" />
<rect shape-rendering="optimizeSpeed"  x="232" y="166" width="11" height="11" fill="black" />
<rect shape-rendering="optimizeSpeed"  x="254" y="166" width="11" height="11" fill="black" />
<rect shape-rendering="optimizeSpeed"  x="265" y="166" width="11" height="11" fill="black" />
<rect shape-rendering="optimizeSpeed"  x="12" y="177" width="11" height="11" fill="black" />
<rect shape-rendering="optimizeSpeed"  x="34" y="177" width="11" height="11" fill="black" />
<rect shape-rendering="optimizeSpeed"  x="45" y="177" width="11" height="11" fill="black" />
<rect shape-rendering="optimizeSpeed"  x="56" y="177" width="11" height="11" fill="black" />
<rect shape-rendering="optimizeSpeed"  x="67" y="177" width="11" height="11" fill="black" />
<rect shape-rendering="optimizeSpeed"  x="133" y="177" width="11" height="11" fill="black" />
<rect shape-rendering="optimizeSpeed"  x="177" y="177" width="11" height="11" fill="black" />
<rect shape-rendering="optimizeSpeed"  x="188" y="177" width="11" height="11" fill="black" />
<rect shape-rendering="optimizeSpeed"  x="199" y="177" width="11" height="11" fill="black" />
<rect shape-rendering="optimizeSpeed"  x="221" y="177" width="11" height="11" fill="black" />
<rect shape-rendering="optimizeSpeed"  x="232" y="177" width="11" height="11" fill="black" />
<rect shape-rendering="optimizeSpeed"  x="276" y="177" width="11" height="11" fill="black" />
<rect shape-rendering="optimizeSpeed"  x="45" y="188" width="11" height="11" fill="black" />
<rect shape-rendering="optimizeSpeed"  x="56" y="188" width="11" height="11" fill="black" />
<rect shape-rendering="optimizeSpeed"  x="78" y="188" width="11" height="11" fill="black" />
<rect shape-rendering="optimizeSpeed"  x="111" y="188" width="11" height="11" fill="black" />
<rect shape-rendering="optimizeSpeed"  x="155" y="188" width="11" height="11" fill="black" />
<rect shape-rendering="optimizeSpeed"  x="188" y="188" width="11" height="11" fill="black" />
<rect shape-rendering="optimizeSpeed"  x="199" y="188" width="11" height="11" fill="black" />
<rect shape-rendering="optimizeSpeed"  x="210" y="188" width="11" height="11" fill="black" />
<rect shape-rendering="optimizeSpeed"  x="221" y="188" width="11" height="11" fill="black" />
<rect shape-rendering="optimizeSpeed"  x="232" y="188" width="11" height="11" fill="black" />
<rect shape-rendering="optimizeSpeed"  x="243" y="188" width="11" height="11" fill="black" />
<rect shape-rendering="optimizeSpeed"  x="254" y="188" width="11" height="11" fill="black" />
<rect shape-rendering="optimizeSpeed"  x="265" y="188" width="11" height="11" fill="black" />
<rect shape-rendering="optimizeSpeed"  x="276" y="188" width="11" height="11" fill="black" />
<rect shape-rendering="optimizeSpeed"  x="100" y="199" width="11" height="11" fill="black" />
<rect shape-rendering="optimizeSpeed"  x="111" y="199" width="11" height="11" fill="black" />
<rect shape-rendering="optimizeSpeed"  x="133" y="199" width="11" height="11" fill="black" />
<rect shape-rendering="optimizeSpeed"  x="144" y="199" width="11" height="11" fill="black" />
<rect shape-rendering="optimizeSpeed"  x="155" y="199" width="11" height="11" fill="black" />
<rect shape-rendering="optimizeSpeed"  x="166" y="199" width="11" height="11" fill="black" />
<rect shape-rendering="optimizeSpeed"  x="188" y="199" width="11" height="11" fill="black" />
<rect shape-rendering="optimizeSpeed"  x="232" y="199" width="11" height="11" fill="black" />
<rect shape-rendering="optimizeSpeed"  x="254" y="199" width="11" height="11" fill="black" />
<rect shape-rendering="optimizeSpeed"  x="276" y="199" width="11" height="11" fill="black" />
<rect shape-rendering="optimizeSpeed"  x="12" y="210" width="11" height="11" fill="black" />
<rect shape-rendering="optimizeSpeed"  x="23" y="210" width="11" height="11" fill="black" />
<rect shape-rendering="optimizeSpeed"  x="34" y="210" width="11" height="11" fill="black" />
<rect shape-rendering="optimizeSpeed"  x="45" y="210" width="11" height="11" fill="black" />
<rect shape-rendering="optimizeSpeed"  x="56" y="210" width="11" height="11" fill="black" />
<rect shape-rendering="optimizeSpeed"  x="67" y="210" width="11" height="11" fill="black" />
<rect shape-rendering="optimizeSpeed"  x="78" y="210" width="11" height="11" fill="black" />
<rect shape-rendering="optimizeSpeed"  x="122" y="210" width="11" height="11" fill="black" />
<rect shape-rendering="optimizeSpeed"  x="166" y="210" width="11" height="11" fill="black" />
<rect shape-rendering="optimizeSpeed"  x="188" y="210" width="11" height="11" fill="black" />
<rect shape-rendering="optimizeSpeed"  x="210" y="210" width="11" height="11" fill="black" />
<rect shape-rendering="optimizeSpeed"  x="232" y="210" width="11" height="11" fill="black" />
<rect shape-rendering="optimizeSpeed"  x="254" y="210" width="11" height="11" fill="black" />
<rect shape-rendering="optimizeSpeed"  x="265" y="210" width="11" height="11" fill="black" />
<rect shape-rendering="optimizeSpeed"  x="276" y="210" width="11" height="11" fill="black" />
<rect shape-rendering="optimizeSpeed"  x="12" y="221" width="11" height="11" fill="black" />
<rect shape-rendering="optimizeSpeed"  x="78" y="221" width="11" height="11" fill="black" />
<rect shape-rendering="optimizeSpeed"  x="133" y="221" width="11" height="11" fill="black" />
<rect shape-rendering="optimizeSpeed"  x="177" y="221" width="11" height="11" fill="black" />
<rect shape-rendering="optimizeSpeed"  x="188" y="221" width="11" height="11" fill="black" />
<rect shape-rendering="optimizeSpeed"  x="232" y="221" width="11" height="11" fill="black" />
<rect shape-rendering="optimizeSpeed"  x="265" y="221" width="11" height="11" fill="black" />
<rect shape-rendering="optimizeSpeed"  x="276" y="221" width="11" height="11" fill="black" />
<rect shape-rendering="optimizeSpeed"  x="12" y="232" width="11" height="11" fill="black" />
<rect shape-rendering="optimizeSpeed"  x="34" y="232" width="11" height="11" fill="black" />
<rect shape-rendering="optimizeSpeed"  x="45" y="232" width="11" height="11" fill="black" />
<rect shape-rendering="optimizeSpeed"  x="56" y="232" width="11" height="11" fill="black" />
<rect shape-rendering="optimizeSpeed"  x="78" y="232" width="11" height="11" fill="black" />
<rect shape-rendering="optimizeSpeed"  x="111" y="232" width="11" height="11" fill="black" />
<rect shape-rendering="optimizeSpeed"  x="122" y="232" width="11" height="11" fill="black" />
<rect shape-rendering="optimizeSpeed"  x="133" y="232" width="11" height="11" fill="black" />
<rect shape-rendering="optimizeSpeed"  x="166" y="232" width="11" height="11" fill="black" />
<rect shape-rendering="optimizeSpeed"  x="188" y="232" width="11" height="11" fill="black" />
<rect shape-rendering="optimizeSpeed"  x="199" y="232" width="11" height="11" fill="black" />
<rect shape-rendering="optimizeSpeed"  x="210" y="232" width="11" height="11" fill="black" />
<rect shape-rendering="optimizeSpeed"  x="221" y="232" width="11" height="11" fill="black" />
<rect shape-rendering="optimizeSpeed"  x="232" y="232" width="11" height="11" fill="black" />
<rect shape-rendering="optimizeSpeed"  x="243" y="232" width="11" height="11" fill="black" />
<rect shape-rendering="optimizeSpeed"  x="276" y="232" width="11" height="11" fill="black" />
<rect shape-rendering="optimizeSpeed"  x="12" y="243" width="11" height="11" fill="black" />
<rect shape-rendering="optimizeSpeed"  x="34" y="243" width="11" height="11" fill="black" />
<rect shape-rendering="optimizeSpeed"  x="45" y="243" width="11" height="11" fill="black" />
<rect shape-rendering="optimizeSpeed"  x="56" y="243" width="11" height="11" fill="black" />
<rect shape-rendering="optimizeSpeed"  x="78" y="243" width="11" height="11" fill="black" />
<rect shape-rendering="optimizeSpeed"  x="100" y="243" width="11" height="11" fill="black" />
<rect shape-rendering="optimizeSpeed"  x="111" y="243" width="11" height="11" fill="black" />
<rect shape-rendering="optimizeSpeed"  x="122" y="243" width="11" height="11" fill="black" />
<rect shape-rendering="optimizeSpeed"  x="133" y="243" width="11" height="11" fill="black" />
<rect shape-rendering="optimizeSpeed"  x="199" y="243" width="11" height="11" fill="black" />
<rect shape-rendering="optimizeSpeed"  x="210" y="243" width="11" height="11" fill="black" />
<rect shape-rendering="optimizeSpeed"  x="232" y="243" width="11" height="11" fill="black" />
<rect shape-rendering="optimizeSpeed"  x="243" y="243" width="11" height="11" fill="black" />
<rect shape-rendering="optimizeSpeed"  x="254" y="243" width="11" height="11" fill="black" />
<rect shape-rendering="optimizeSpeed"  x="265" y="243" width="11" height="11" fill="black" />
<rect shape-rendering="optimizeSpeed"  x="276" y="243" width="11" height="11" fill="black" />
<rect shape-rendering="optimizeSpeed"  x="12" y="254" width="11" height="11" fill="black" />
<rect shape-rendering="optimizeSpeed"  x="34" y="254" width="11" height="11" fill="black" />
<rect shape-rendering="optimizeSpeed"  x="45" y="254" width="11" height="11" fill="black" />
<rect shape-rendering="optimizeSpeed"  x="56" y="254" width="11" height="11" fill="black" />
<rect shape-rendering="optimizeSpeed"  x="78" y="254" width="11" height="11" fill="black" />
<rect shape-rendering="optimizeSpeed"  x="100" y="254" width="11" height="11" fill="black" />
<rect shape-rendering="optimizeSpeed"  x="111" y="254" width="11" height="11" fill="black" />
<rect shape-rendering="optimizeSpeed"  x="122" y="254" width="11" height="11" fill="black" />
<rect shape-rendering="optimizeSpeed"  x="133" y="254" width="11" height="11" fill="black" />
<rect shape-rendering="optimizeSpeed"  x="155" y="254" width="11" height="11" fill="black" />
<rect shape-rendering="optimizeSpeed"  x="166" y="254" width="11" height="11" fill="black" />
<rect shape-rendering="optimizeSpeed"  x="188" y="254" width="11" height="11" fill="black" />
<rect shape-rendering="optimizeSpeed"  x="199" y="254" width="11" height="11" fill="black" />
<rect shape-rendering="optimizeSpeed"  x="210" y="254" width="11" height="11" fill="black" />
<rect shape-rendering="optimizeSpeed"  x="232" y="254" width="11" height="11" fill="black" />
<rect shape-rendering="optimizeSpeed"  x="254" y="254" width="11" height="11" fill="black" />
<rect shape-rendering="optimizeSpeed"  x="265" y="254" width="11" height="11" fill="black" />
<rect shape-rendering="optimizeSpeed"  x="12" y="265" width="11" height="11" fill="black" />
<rect shape-rendering="optimizeSpeed"  x="78" y="265" width="11" height="11" fill="black" />
<rect shape-rendering="optimizeSpeed"  x="100" y="265" width="11" height="11" fill="black" />
<rect shape-rendering="optimizeSpeed"  x="122" y="265" width="11" height="11" fill="black" />
<rect shape-rendering="optimizeSpeed"  x="133" y="265" width="11" height="11" fill="black" />
<rect shape-rendering="optimizeSpeed"  x="144" y="265" width="11" height="11" fill="black" />
<rect shape-rendering="optimizeSpeed"  x="155" y="265" width="11" height="11" fill="black" />
<rect shape-rendering="optimizeSpeed"  x="210" y="265" width="11" height="11" fill="black" />
<rect shape-rendering="optimizeSpeed"  x="232" y="265" width="11" height="11" fill="black" />
<rect shape-rendering="optimizeSpeed"  x="254" y="265" width="11" height="11" fill="black" />
<rect shape-rendering="optimizeSpeed"  x="12" y="276" width="11" height="11" fill="black" />
<rect shape-rendering="optimizeSpeed"  x="23" y="276" width="11" height="11" fill="black" />
<rect shape-rendering="optimizeSpeed"  x="34" y="276" width="11" height="11" fill="black" />
<rect shape-rendering="optimizeSpeed"  x="45" y="276" width="11" height="11" fill="black" />
<rect shape-rendering="optimizeSpeed"  x="56" y="276" width="11" height="11" fill="black" />
<rect shape-rendering="optimizeSpeed"  x="67" y="276" width="11" height="11" fill="black" />
<rect shape-rendering="optimizeSpeed"  x="78" y="276" width="11" height="11" fill="black" />
<rect shape-rendering="optimizeSpeed"  x="100" y="276" width="11" height="11" fill="black" />
<rect shape-rendering="optimizeSpeed"  x="111" y="276" width="11" height="11" fill="black" />
<rect shape-rendering="optimizeSpeed"  x="122" y="276" width="11" height="11" fill="black" />
<rect shape-rendering="optimizeSpeed"  x="133" y="276" width="11" height="11" fill="black" />
<rect shape-rendering="optimizeSpeed"  x="144" y="276" width="11" height="11" fill="black" />
<rect shape-rendering="optimizeSpeed"  x="155" y="276" width="11" height="11" fill="black" />
<rect shape-rendering="optimizeSpeed"  x="210" y="276" width="11" height="11" fill="black" />
<rect shape-rendering="optimizeSpeed"  x="221" y="276" width="11" height="11" fill="black" />
<rect shape-rendering="optimizeSpeed"  x="232" y="276" width="11" height="11" fill="black" />
<rect shape-rendering="optimizeSpeed"  x="243" y="276" width="11" height="11" fill="black" />
<rect shape-rendering="optimizeSpeed"  x="254" y="276" width="11" height="11" fill="black" />
<rect shape-rendering="optimizeSpeed"  x="265" y="276" width="11" height="11" fill="black" />
<rect shape-rendering="optimizeSpeed"  x="276" y="276" width="11" height="11" fill="black" /></svg>